<svg width="144" height="43" viewBox="0 0 144 43" fill="none" xmlns="http://www.w3.org/2000/svg">
  <path d="M138.054 42.4783H5.30979C2.33631 42.4783 0 40.0358 0 37.1685V5.30979C0 2.33631 2.4425 0 5.30979 0H138.054C141.028 0 143.364 2.4425 143.364 5.30979V37.1685C143.364 40.142 141.028 42.4783 138.054 42.4783Z" fill="black"/>
  <path d="M138.054 0.849566C140.497 0.849566 142.515 2.86729 142.515 5.30979V37.1685C142.515 39.611 140.497 41.6287 138.054 41.6287H5.30979C2.86729 41.6287 0.849566 39.611 0.849566 37.1685V5.30979C0.849566 2.86729 2.86729 0.849566 5.30979 0.849566H138.054ZM138.054 0H5.30979C2.4425 0 0 2.4425 0 5.30979V37.1685C0 40.142 2.4425 42.4783 5.30979 42.4783H138.054C141.028 42.4783 143.364 40.0358 143.364 37.1685V5.30979C143.364 2.4425 141.028 0 138.054 0Z" fill="#A6A6A6"/>
  <path d="M50.3367 10.832C50.3367 11.6816 50.1243 12.4249 49.5933 12.9559C48.9561 13.5931 48.2128 13.9117 47.257 13.9117C46.3012 13.9117 45.5579 13.5931 44.9207 12.9559C44.2835 12.3187 43.9649 11.5754 43.9649 10.6196C43.9649 9.66384 44.2835 8.92047 44.9207 8.28329C45.5579 7.64612 46.3012 7.32753 47.257 7.32753C47.6818 7.32753 48.1066 7.43373 48.5314 7.64612C48.9561 7.85851 49.2747 8.0709 49.4871 8.38949L48.9561 8.92047C48.5313 8.38949 48.0004 8.1771 47.257 8.1771C46.6198 8.1771 45.9827 8.38949 45.5579 8.92047C45.0269 9.34525 44.8145 9.98242 44.8145 10.7258C44.8145 11.4692 45.0269 12.1063 45.5579 12.5311C46.0889 12.9559 46.6198 13.2745 47.257 13.2745C48.0004 13.2745 48.5314 13.0621 49.0623 12.5311C49.3809 12.2125 49.5933 11.7878 49.5933 11.2568H47.257V10.4072H50.3367C50.3367 10.5134 50.3367 10.7258 50.3367 10.832Z" fill="white" stroke="white" stroke-width="0.2" stroke-miterlimit="10"/>
  <path d="M55.2219 8.17707H52.3546V10.1948H55.0095V10.9382H52.3546V12.9559H55.2219V13.8054H51.505V7.4337H55.2219V8.17707Z" fill="white" stroke="white" stroke-width="0.2" stroke-miterlimit="10"/>
  <path d="M58.7261 13.8054H57.8766V8.17707H56.0712V7.4337H60.5314V8.17707H58.7261V13.8054Z" fill="white" stroke="white" stroke-width="0.2" stroke-miterlimit="10"/>
  <path d="M63.6112 13.8054V7.4337H64.4608V13.8054H63.6112Z" fill="white" stroke="white" stroke-width="0.2" stroke-miterlimit="10"/>
  <path d="M68.0714 13.8054H67.2218V8.17707H65.4165V7.4337H69.7705V8.17707H67.9652V13.8054H68.0714Z" fill="white" stroke="white" stroke-width="0.2" stroke-miterlimit="10"/>
  <path d="M78.1599 12.9559C77.5228 13.5931 76.7794 13.9117 75.8236 13.9117C74.8679 13.9117 74.1245 13.5931 73.4873 12.9559C72.8502 12.3187 72.5316 11.5754 72.5316 10.6196C72.5316 9.66384 72.8502 8.92047 73.4873 8.28329C74.1245 7.64612 74.8679 7.32753 75.8236 7.32753C76.7794 7.32753 77.5228 7.64612 78.1599 8.28329C78.7971 8.92047 79.1157 9.66384 79.1157 10.6196C79.1157 11.5754 78.7971 12.3187 78.1599 12.9559ZM74.1245 12.4249C74.5493 12.8497 75.1865 13.1683 75.8236 13.1683C76.4608 13.1683 77.098 12.9559 77.5228 12.4249C77.9475 12.0001 78.2661 11.363 78.2661 10.6196C78.2661 9.87623 78.0537 9.23905 77.5228 8.81427C77.098 8.38949 76.4608 8.0709 75.8236 8.0709C75.1865 8.0709 74.5493 8.28329 74.1245 8.81427C73.6997 9.23905 73.3811 9.87623 73.3811 10.6196C73.3811 11.363 73.5935 12.0001 74.1245 12.4249Z" fill="white" stroke="white" stroke-width="0.2" stroke-miterlimit="10"/>
  <path d="M80.2839 13.8054V7.4337H81.2397L84.3193 12.4249V11.1506V7.4337H85.1689V13.8054H84.3193L81.0273 8.60185V9.8762V13.8054H80.2839Z" fill="white" stroke="white" stroke-width="0.2" stroke-miterlimit="10"/>
  <path d="M72.3194 23.1506C69.7707 23.1506 67.753 25.0622 67.753 27.7171C67.753 30.2658 69.7707 32.2835 72.3194 32.2835C74.8681 32.2835 76.8858 30.3719 76.8858 27.7171C76.8858 24.956 74.8681 23.1506 72.3194 23.1506ZM72.3194 30.3719C70.9389 30.3719 69.7707 29.2038 69.7707 27.6109C69.7707 26.0179 70.9389 24.8498 72.3194 24.8498C73.6999 24.8498 74.8681 25.9117 74.8681 27.6109C74.8681 29.2038 73.6999 30.3719 72.3194 30.3719ZM62.4432 23.1506C59.8945 23.1506 57.8768 25.0622 57.8768 27.7171C57.8768 30.2658 59.8945 32.2835 62.4432 32.2835C64.9919 32.2835 67.0096 30.3719 67.0096 27.7171C67.0096 24.956 64.9919 23.1506 62.4432 23.1506ZM62.4432 30.3719C61.0626 30.3719 59.8945 29.2038 59.8945 27.6109C59.8945 26.0179 61.0626 24.8498 62.4432 24.8498C63.8237 24.8498 64.9919 25.9117 64.9919 27.6109C64.9919 29.2038 63.8237 30.3719 62.4432 30.3719ZM50.6555 24.5312V26.4427H55.2219C55.1157 27.5047 54.6909 28.3542 54.1599 28.8852C53.5228 29.5224 52.4608 30.2658 50.6555 30.2658C47.7882 30.2658 45.6643 28.0356 45.6643 25.1684C45.6643 22.3011 47.8944 20.071 50.6555 20.071C52.1422 20.071 53.3104 20.7081 54.1599 21.4515L55.5405 20.071C54.3723 19.009 52.8856 18.1594 50.7617 18.1594C46.9386 18.1594 43.6465 21.3453 43.6465 25.1684C43.6465 28.9914 46.9386 32.1773 50.7617 32.1773C52.8856 32.1773 54.3723 31.5401 55.6467 30.1596C56.921 28.8852 57.3458 27.0799 57.3458 25.6993C57.3458 25.2746 57.3458 24.8498 57.2396 24.5312H50.6555ZM98.8683 26.0179C98.4435 24.956 97.3816 23.1506 95.0453 23.1506C92.709 23.1506 90.7975 24.956 90.7975 27.7171C90.7975 30.2658 92.709 32.2835 95.2577 32.2835C97.2754 32.2835 98.5497 31.0091 98.9745 30.2658L97.4878 29.2038C96.9568 29.9472 96.3196 30.4781 95.2577 30.4781C94.1957 30.4781 93.5585 30.0534 93.0276 29.0976L99.0807 26.5489L98.8683 26.0179ZM92.709 27.5047C92.709 25.8055 94.0895 24.8498 95.0453 24.8498C95.7887 24.8498 96.532 25.2746 96.7444 25.8055L92.709 27.5047ZM87.7178 31.8587H89.7355V18.5842H87.7178V31.8587ZM84.5319 24.1064C84.0009 23.5754 83.1514 23.0444 82.0894 23.0444C79.8593 23.0444 77.7354 25.0622 77.7354 27.6109C77.7354 30.1596 79.7531 32.0711 82.0894 32.0711C83.1514 32.0711 84.0009 31.5401 84.4257 31.0091H84.5319V31.6463C84.5319 33.3454 83.5761 34.3012 82.0894 34.3012C80.9213 34.3012 80.0717 33.4516 79.8593 32.7083L78.1602 33.4516C78.6911 34.6198 79.9655 36.1065 82.1956 36.1065C84.5319 36.1065 86.4434 34.726 86.4434 31.4339V23.363H84.5319V24.1064ZM82.1956 30.3719C80.8151 30.3719 79.6469 29.2038 79.6469 27.6109C79.6469 26.0179 80.8151 24.8498 82.1956 24.8498C83.5761 24.8498 84.6381 26.0179 84.6381 27.6109C84.6381 29.2038 83.5761 30.3719 82.1956 30.3719ZM108.107 18.5842H103.329V31.8587H105.346V26.8675H108.107C110.337 26.8675 112.461 25.2746 112.461 22.7259C112.461 20.1772 110.337 18.5842 108.107 18.5842ZM108.214 24.956H105.346V20.3895H108.214C109.7 20.3895 110.55 21.6639 110.55 22.6197C110.444 23.7878 109.594 24.956 108.214 24.956ZM120.426 23.0444C118.939 23.0444 117.453 23.6816 116.922 25.0622L118.727 25.8055C119.152 25.0622 119.789 24.8498 120.532 24.8498C121.594 24.8498 122.55 25.4869 122.656 26.5489V26.6551C122.338 26.4427 121.488 26.1241 120.638 26.1241C118.727 26.1241 116.815 27.1861 116.815 29.0976C116.815 30.9029 118.408 32.0711 120.107 32.0711C121.488 32.0711 122.125 31.4339 122.656 30.7967H122.762V31.8587H124.674V26.7613C124.462 24.425 122.656 23.0444 120.426 23.0444ZM120.214 30.3719C119.576 30.3719 118.621 30.0534 118.621 29.2038C118.621 28.1418 119.789 27.8233 120.745 27.8233C121.594 27.8233 122.019 28.0356 122.55 28.248C122.338 29.5224 121.276 30.3719 120.214 30.3719ZM131.364 23.363L129.134 29.0976H129.028L126.692 23.363H124.568L128.072 31.4339L126.054 35.8941H128.072L133.488 23.363H131.364ZM113.523 31.8587H115.541V18.5842H113.523V31.8587Z" fill="white"/>
  <path d="M11.0443 7.96468C10.7257 8.28326 10.6195 8.81424 10.6195 9.45142V32.9207C10.6195 33.5578 10.8319 34.0888 11.1505 34.4074L11.2567 34.5136L24.425 21.3453V21.2391V21.1329L11.0443 7.96468Z" fill="url(#paint0_linear)"/>
  <path d="M28.6727 25.8056L24.3187 21.4516V21.2392V21.133L28.6727 16.779L28.7789 16.8852L33.9825 19.8587C35.4692 20.7082 35.4692 22.0888 33.9825 22.9383L28.6727 25.8056Z" fill="url(#paint1_linear)"/>
  <path d="M28.7789 25.6994L24.3187 21.2392L11.0442 34.5136C11.5752 35.0446 12.3185 35.0446 13.2743 34.6198L28.7789 25.6994Z" fill="url(#paint2_linear)"/>
  <path d="M28.7789 16.779L13.2743 7.96474C12.3185 7.43376 11.5752 7.53996 11.0442 8.07093L24.3187 21.2392L28.7789 16.779Z" fill="url(#paint3_linear)"/>
  <path opacity="0.2" d="M28.6726 25.5932L13.2742 34.3013C12.4247 34.8322 11.6813 34.726 11.1503 34.3013L11.0441 34.4075L11.1503 34.5137C11.6813 34.9384 12.4247 35.0446 13.2742 34.5137L28.6726 25.5932Z" fill="black"/>
  <path opacity="0.12" d="M11.0442 34.3013C10.7256 33.9827 10.6194 33.4517 10.6194 32.8145V32.9207C10.6194 33.5579 10.8318 34.0889 11.1504 34.4075V34.3013H11.0442Z" fill="black"/>
  <path opacity="0.12" d="M33.9826 22.6197L28.6728 25.5932L28.779 25.6994L33.9826 22.7259C34.7259 22.3011 35.0445 21.7701 35.0445 21.2392C35.0445 21.7701 34.6198 22.1949 33.9826 22.6197Z" fill="black"/>
  <path opacity="0.25" d="M13.2745 8.07091L33.9826 19.8586C34.6198 20.2834 35.0446 20.7082 35.0446 21.2392C35.0446 20.7082 34.726 20.1772 33.9826 19.7524L13.2745 7.96471C11.7877 7.11514 10.6196 7.75232 10.6196 9.45145V9.55765C10.6196 7.96471 11.7877 7.22134 13.2745 8.07091Z" fill="white"/>
  <defs>
    <linearGradient id="paint0_linear" x1="23.1502" y1="9.24943" x2="5.32799" y2="27.0716" gradientUnits="userSpaceOnUse">
      <stop stop-color="#00A0FF"/>
      <stop offset="0.00657445" stop-color="#00A1FF"/>
      <stop offset="0.2601" stop-color="#00BEFF"/>
      <stop offset="0.5122" stop-color="#00D2FF"/>
      <stop offset="0.7604" stop-color="#00DFFF"/>
      <stop offset="1" stop-color="#00E3FF"/>
    </linearGradient>
    <linearGradient id="paint1_linear" x1="35.9304" y1="21.2408" x2="10.2343" y2="21.2408" gradientUnits="userSpaceOnUse">
      <stop stop-color="#FFE000"/>
      <stop offset="0.4087" stop-color="#FFBD00"/>
      <stop offset="0.7754" stop-color="#FFA500"/>
      <stop offset="1" stop-color="#FF9C00"/>
    </linearGradient>
    <linearGradient id="paint2_linear" x1="26.3649" y1="23.6776" x2="2.1966" y2="47.846" gradientUnits="userSpaceOnUse">
      <stop stop-color="#FF3A44"/>
      <stop offset="1" stop-color="#C31162"/>
    </linearGradient>
    <linearGradient id="paint3_linear" x1="7.74915" y1="0.187281" x2="18.5414" y2="10.9794" gradientUnits="userSpaceOnUse">
      <stop stop-color="#32A071"/>
      <stop offset="0.0685" stop-color="#2DA771"/>
      <stop offset="0.4762" stop-color="#15CF74"/>
      <stop offset="0.8009" stop-color="#06E775"/>
      <stop offset="1" stop-color="#00F076"/>
    </linearGradient>
  </defs>
</svg>
