<svg width="128" height="43" viewBox="0 0 128 43" fill="none" xmlns="http://www.w3.org/2000/svg">
  <path d="M116.958 0.000138054H10.1254C9.736 0.000138054 9.35126 0.000138055 8.96287 0.00226197C8.63775 0.00438588 8.31522 0.0105559 7.98698 0.0157488C7.27389 0.0241402 6.56248 0.0868748 5.85892 0.203407C5.15636 0.322477 4.4758 0.546957 3.84027 0.869255C3.20552 1.19428 2.62552 1.61662 2.12133 2.12094C1.6145 2.62385 1.19201 3.20514 0.870115 3.84247C0.547333 4.47853 0.323515 5.16012 0.206391 5.86371C0.0881541 6.56642 0.0245295 7.27722 0.0160887 7.98975C0.00623369 8.31535 0.00519297 8.64203 0 8.96767V33.514C0.00519297 33.8438 0.00623369 34.1632 0.0160887 34.493C0.0245321 35.2055 0.0881567 35.9163 0.206391 36.619C0.323192 37.323 0.547023 38.005 0.870115 38.6413C1.19186 39.2765 1.61441 39.8555 2.12133 40.3556C2.62361 40.8621 3.20398 41.2848 3.84027 41.6073C4.4758 41.9305 5.15628 42.1563 5.85892 42.2772C6.5626 42.3928 7.27394 42.4556 7.98698 42.4649C8.31522 42.4722 8.63775 42.4763 8.96287 42.4763C9.35125 42.4784 9.73603 42.4784 10.1254 42.4784H116.958C117.34 42.4784 117.728 42.4784 118.11 42.4763C118.433 42.4763 118.765 42.4722 119.089 42.4649C119.8 42.4561 120.51 42.3933 121.213 42.2772C121.917 42.1554 122.6 41.9297 123.239 41.6073C123.875 41.2846 124.454 40.862 124.956 40.3556C125.462 39.8535 125.885 39.275 126.211 38.6413C126.532 38.0045 126.754 37.3226 126.869 36.619C126.987 35.9162 127.053 35.2056 127.066 34.493C127.07 34.1632 127.07 33.8438 127.07 33.514C127.078 33.1282 127.078 32.7445 127.078 32.3525V10.1271C127.078 9.7382 127.078 9.35241 127.07 8.96767C127.07 8.64203 127.07 8.31535 127.066 7.98971C127.053 7.27712 126.987 6.56647 126.869 5.86367C126.753 5.16049 126.532 4.47895 126.211 3.84243C125.556 2.56497 124.516 1.52514 123.239 0.869159C122.6 0.547649 121.917 0.323228 121.213 0.203312C120.51 0.0862658 119.8 0.0235094 119.089 0.0156002C118.765 0.0104178 118.433 0.00419473 118.11 0.00212391C117.728 0 117.34 0 116.958 0V0.000138054Z" fill="#A6A6A6"/>
  <path d="M8.96807 41.5492C8.64452 41.5492 8.32878 41.545 8.00776 41.5378C7.34274 41.5292 6.67928 41.4713 6.02281 41.3646C5.41069 41.2592 4.8177 41.0631 4.26342 40.7828C3.71422 40.5048 3.21331 40.1403 2.77987 39.7032C2.34015 39.2713 1.97407 38.7703 1.69613 38.2202C1.41512 37.6665 1.22065 37.0729 1.11949 36.4603C1.01024 35.802 0.951129 35.1364 0.942671 34.4691C0.935938 34.2452 0.927124 33.4994 0.927124 33.4994V8.96764C0.927124 8.96764 0.936512 8.23339 0.942724 8.01767C0.950823 7.35149 1.00959 6.68689 1.11851 6.02962C1.21986 5.41529 1.41448 4.82007 1.69564 4.26454C1.97256 3.71478 2.33661 3.21344 2.77368 2.77997C3.21025 2.34238 3.71277 1.97599 4.2629 1.69415C4.81591 1.41474 5.40777 1.22001 6.01866 1.11651C6.67728 1.00879 7.34305 0.950556 8.01037 0.942288L8.96859 0.929321H118.104L119.074 0.942808C119.735 0.950666 120.395 1.00838 121.048 1.11547C121.665 1.22027 122.263 1.41635 122.822 1.69727C123.924 2.26525 124.821 3.16385 125.387 4.26713C125.663 4.81882 125.855 5.4092 125.955 6.01821C126.065 6.68087 126.127 7.3507 126.14 8.02235C126.143 8.32309 126.143 8.64614 126.143 8.96764C126.151 9.36587 126.151 9.74492 126.151 10.1271V32.3524C126.151 32.7382 126.151 33.1147 126.143 33.4942C126.143 33.8396 126.143 34.1559 126.139 34.4815C126.126 35.1412 126.065 35.7991 125.957 36.4499C125.858 37.0669 125.665 37.6651 125.384 38.2234C125.104 38.7675 124.74 39.2641 124.305 39.6949C123.871 40.1343 123.369 40.501 122.819 40.7808C122.261 41.0632 121.664 41.2601 121.048 41.3646C120.391 41.4718 119.728 41.5297 119.063 41.5378C118.752 41.545 118.426 41.5492 118.11 41.5492L116.958 41.5513L8.96807 41.5492Z" fill="black"/>
  <path d="M26.3035 21.5586C26.3149 20.6722 26.5503 19.8031 26.9879 19.0322C27.4254 18.2612 28.0509 17.6135 28.806 17.1493C28.3263 16.4641 27.6934 15.9003 26.9577 15.5025C26.2219 15.1048 25.4036 14.8841 24.5676 14.8579C22.7843 14.6707 21.0555 15.925 20.1468 15.925C19.2205 15.925 17.8213 14.8765 16.3147 14.9075C15.3402 14.939 14.3904 15.2224 13.558 15.73C12.7255 16.2377 12.0388 16.9524 11.5646 17.8044C9.51082 21.3602 11.0428 26.5862 13.0102 29.4605C13.9945 30.868 15.1449 32.4401 16.6502 32.3844C18.1232 32.3233 18.6733 31.4451 20.4514 31.4451C22.2129 31.4451 22.729 32.3844 24.2648 32.3489C25.8454 32.3233 26.8413 30.9352 27.7911 29.5144C28.4983 28.5115 29.0425 27.4032 29.4036 26.2303C28.4853 25.8419 27.7017 25.1918 27.1504 24.361C26.5991 23.5303 26.3045 22.5556 26.3035 21.5586Z" fill="white"/>
  <path d="M23.4026 12.9676C24.2644 11.933 24.689 10.6032 24.5861 9.26067C23.2695 9.39895 22.0533 10.0282 21.1798 11.0231C20.7528 11.5091 20.4257 12.0745 20.2173 12.6871C20.0089 13.2996 19.9232 13.9471 19.9653 14.5928C20.6238 14.5995 21.2753 14.4568 21.8707 14.1753C22.4661 13.8938 22.9899 13.4808 23.4026 12.9676Z" fill="white"/>
  <path d="M44.9233 28.8212H39.8966L38.6895 32.3856H36.5604L41.3215 19.1982H43.5336L48.2948 32.3856H46.1294L44.9233 28.8212ZM40.4172 27.1764H44.4017L42.4375 21.3916H42.3825L40.4172 27.1764Z" fill="white"/>
  <path d="M58.5773 27.5788C58.5773 30.5666 56.9782 32.4862 54.5649 32.4862C53.9536 32.5182 53.3456 32.3774 52.8106 32.0799C52.2756 31.7824 51.8352 31.3402 51.5398 30.8041H51.4941V35.5663H49.5206V22.771H51.4309V24.3701H51.4672C51.7762 23.8365 52.224 23.3967 52.7631 23.0974C53.3022 22.798 53.9124 22.6505 54.5286 22.6704C56.9688 22.6704 58.5773 24.5993 58.5773 27.5788ZM56.5488 27.5788C56.5488 25.6322 55.5429 24.3525 54.008 24.3525C52.5001 24.3525 51.4859 25.6592 51.4859 27.5788C51.4859 29.516 52.5001 30.8134 54.008 30.8134C55.5429 30.8134 56.5488 29.543 56.5488 27.5788Z" fill="white"/>
  <path d="M69.1596 27.5789C69.1596 30.5667 67.5604 32.4863 65.1472 32.4863C64.5359 32.5182 63.9279 32.3774 63.3929 32.0799C62.8579 31.7824 62.4175 31.3403 62.1221 30.8041H62.0764V35.5663H60.1028V22.771H62.0131V24.3702H62.0494C62.3584 23.8366 62.8063 23.3967 63.3453 23.0974C63.8844 22.7981 64.4946 22.6506 65.1108 22.6704C67.5511 22.6704 69.1596 24.5994 69.1596 27.5789ZM67.1311 27.5789C67.1311 25.6323 66.1251 24.3525 64.5903 24.3525C63.0824 24.3525 62.0681 25.6593 62.0681 27.5789C62.0681 29.5161 63.0824 30.8135 64.5903 30.8135C66.1251 30.8135 67.1311 29.5431 67.1311 27.5789H67.1311Z" fill="white"/>
  <path d="M76.1536 28.7113C76.2998 30.0191 77.5702 30.8777 79.3063 30.8777C80.9697 30.8777 82.1665 30.019 82.1665 28.8399C82.1665 27.8163 81.4447 27.2034 79.7356 26.7834L78.0265 26.3716C75.605 25.7867 74.4808 24.6543 74.4808 22.8166C74.4808 20.5412 76.4637 18.9784 79.2793 18.9784C82.0659 18.9784 83.9762 20.5412 84.0405 22.8166H82.0482C81.929 21.5005 80.8411 20.7061 79.2513 20.7061C77.6614 20.7061 76.5736 21.5099 76.5736 22.6797C76.5736 23.612 77.2684 24.1606 78.9681 24.5806L80.4211 24.9373C83.1268 25.5772 84.251 26.6641 84.251 28.593C84.251 31.0602 82.2857 32.6054 79.16 32.6054C76.2355 32.6054 74.2609 31.0965 74.1333 28.7112L76.1536 28.7113Z" fill="white"/>
  <path d="M88.5102 20.4957V22.771H90.3385V24.3339H88.5102V29.6343C88.5102 30.4577 88.8763 30.8415 89.68 30.8415C89.8971 30.8377 90.1138 30.8224 90.3292 30.7958V32.3493C89.9679 32.4168 89.6006 32.4474 89.233 32.4406C87.2865 32.4406 86.5273 31.7094 86.5273 29.8448V24.3339H85.1294V22.771H86.5273V20.4957H88.5102Z" fill="white"/>
  <path d="M91.3974 27.5788C91.3974 24.5537 93.1791 22.6528 95.9574 22.6528C98.745 22.6528 100.518 24.5537 100.518 27.5788C100.518 30.6123 98.7544 32.5049 95.9574 32.5049C93.1614 32.5049 91.3974 30.6123 91.3974 27.5788ZM98.5075 27.5788C98.5075 25.5037 97.5565 24.2789 95.9574 24.2789C94.3582 24.2789 93.4083 25.513 93.4083 27.5788C93.4083 29.6623 94.3582 30.8778 95.9574 30.8778C97.5565 30.8778 98.5075 29.6623 98.5075 27.5788H98.5075Z" fill="white"/>
  <path d="M102.146 22.771H104.028V24.4075H104.074C104.201 23.8964 104.5 23.4447 104.921 23.1283C105.343 22.812 105.86 22.6503 106.386 22.6704C106.614 22.6696 106.84 22.6943 107.062 22.744V24.59C106.775 24.5023 106.476 24.462 106.176 24.4707C105.889 24.4591 105.603 24.5097 105.338 24.6189C105.072 24.7282 104.834 24.8936 104.639 25.1037C104.443 25.3139 104.296 25.5638 104.206 25.8364C104.116 26.109 104.087 26.3977 104.119 26.6828V32.3856H102.146L102.146 22.771Z" fill="white"/>
  <path d="M116.162 29.5617C115.896 31.3071 114.196 32.5049 112.022 32.5049C109.225 32.5049 107.489 30.6309 107.489 27.6245C107.489 24.6087 109.234 22.6528 111.939 22.6528C114.599 22.6528 116.271 24.4801 116.271 27.3953V28.0714H109.481V28.1907C109.449 28.5446 109.494 28.901 109.611 29.2364C109.728 29.5718 109.915 29.8785 110.159 30.1361C110.404 30.3937 110.701 30.5962 111.03 30.7304C111.358 30.8645 111.712 30.9271 112.067 30.914C112.534 30.9577 113.002 30.8497 113.402 30.6061C113.802 30.3624 114.112 29.9961 114.288 29.5617L116.162 29.5617ZM109.49 26.6921H114.297C114.315 26.374 114.266 26.0556 114.155 25.757C114.044 25.4583 113.872 25.1859 113.651 24.9568C113.429 24.7276 113.163 24.5467 112.868 24.4255C112.574 24.3042 112.257 24.2451 111.939 24.2519C111.617 24.25 111.299 24.3118 111.001 24.4336C110.704 24.5555 110.434 24.735 110.206 24.9619C109.978 25.1887 109.798 25.4584 109.675 25.7554C109.552 26.0524 109.489 26.3708 109.49 26.6922V26.6921Z" fill="white"/>
  <path d="M40.1699 9.27211C40.5836 9.24242 40.9988 9.30493 41.3855 9.45512C41.7722 9.60532 42.1207 9.83946 42.4059 10.1407C42.6911 10.4419 42.906 10.8026 43.0349 11.1969C43.1638 11.5911 43.2036 12.0091 43.1514 12.4206C43.1514 14.445 42.0573 15.6086 40.1699 15.6086H37.8811V9.27211H40.1699ZM38.8652 14.7125H40.0599C40.3556 14.7302 40.6515 14.6817 40.926 14.5706C41.2006 14.4595 41.4469 14.2886 41.6471 14.0703C41.8473 13.852 41.9962 13.5918 42.0832 13.3087C42.1701 13.0255 42.1928 12.7266 42.1496 12.4336C42.1897 12.1417 42.1647 11.8446 42.0764 11.5635C41.9881 11.2825 41.8388 11.0244 41.6391 10.8078C41.4394 10.5913 41.1942 10.4216 40.9212 10.3109C40.6482 10.2002 40.3541 10.1512 40.0599 10.1676H38.8652V14.7125Z" fill="white"/>
  <path d="M44.2632 13.2155C44.2332 12.9013 44.2691 12.5842 44.3688 12.2846C44.4684 11.9851 44.6296 11.7097 44.8419 11.4761C45.0542 11.2425 45.3131 11.0558 45.6018 10.9281C45.8904 10.8004 46.2026 10.7344 46.5183 10.7344C46.834 10.7344 47.1462 10.8004 47.4349 10.9281C47.7236 11.0558 47.9824 11.2425 48.1948 11.4761C48.4071 11.7097 48.5682 11.9851 48.6679 12.2846C48.7676 12.5842 48.8035 12.9013 48.7734 13.2155C48.8041 13.5301 48.7686 13.8476 48.6692 14.1476C48.5698 14.4476 48.4087 14.7236 48.1963 14.9576C47.9839 15.1917 47.7249 15.3788 47.4359 15.5068C47.147 15.6348 46.8344 15.7009 46.5183 15.7009C46.2023 15.7009 45.8897 15.6348 45.6007 15.5068C45.3117 15.3788 45.0527 15.1917 44.8403 14.9576C44.628 14.7236 44.4669 14.4476 44.3675 14.1476C44.2681 13.8476 44.2326 13.5301 44.2632 13.2155ZM47.8027 13.2155C47.8027 12.179 47.3371 11.5728 46.5199 11.5728C45.6996 11.5728 45.2381 12.179 45.2381 13.2155C45.2381 14.2604 45.6996 14.8619 46.5199 14.8619C47.3371 14.8619 47.8027 14.2562 47.8027 13.2155H47.8027Z" fill="white"/>
  <path d="M54.7687 15.6085H53.7897L52.8014 12.0866H52.7267L51.7425 15.6085H50.7729L49.4547 10.8266H50.412L51.2686 14.4755H51.3391L52.3222 10.8266H53.2276L54.2107 14.4755H54.2854L55.1379 10.8266H56.0816L54.7687 15.6085Z" fill="white"/>
  <path d="M57.1903 10.8266H58.0987V11.5862H58.1692C58.2889 11.3134 58.4907 11.0847 58.7464 10.932C59.0022 10.7793 59.2993 10.7102 59.5962 10.7343C59.8289 10.7168 60.0626 10.7519 60.2798 10.8369C60.4971 10.922 60.6925 11.0549 60.8514 11.2257C61.0104 11.3965 61.1289 11.6009 61.1981 11.8237C61.2673 12.0465 61.2856 12.282 61.2514 12.5129V15.6085H60.3077V12.7498C60.3077 11.9814 59.9737 11.5992 59.2758 11.5992C59.1178 11.5919 58.9601 11.6187 58.8135 11.678C58.6669 11.7373 58.5348 11.8276 58.4264 11.9427C58.3179 12.0578 58.2357 12.195 58.1852 12.3449C58.1347 12.4947 58.1172 12.6538 58.134 12.811V15.6085H57.1902L57.1903 10.8266Z" fill="white"/>
  <path d="M62.7552 8.95988H63.6989V15.6085H62.7552V8.95988Z" fill="white"/>
  <path d="M65.0108 13.2155C64.9808 12.9013 65.0167 12.5842 65.1164 12.2846C65.2161 11.9851 65.3773 11.7096 65.5896 11.476C65.802 11.2424 66.0608 11.0558 66.3495 10.928C66.6382 10.8003 66.9505 10.7343 67.2662 10.7343C67.5819 10.7343 67.8941 10.8003 68.1828 10.928C68.4715 11.0558 68.7303 11.2424 68.9427 11.476C69.1551 11.7096 69.3162 11.9851 69.4159 12.2846C69.5156 12.5842 69.5516 12.9013 69.5215 13.2155C69.5521 13.5301 69.5166 13.8476 69.4171 14.1477C69.3177 14.4477 69.1566 14.7236 68.9442 14.9577C68.7318 15.1917 68.4728 15.3788 68.1838 15.5068C67.8948 15.6348 67.5822 15.7009 67.2662 15.7009C66.9501 15.7009 66.6375 15.6348 66.3485 15.5068C66.0595 15.3788 65.8005 15.1917 65.5881 14.9577C65.3757 14.7236 65.2146 14.4477 65.1152 14.1477C65.0158 13.8476 64.9802 13.5301 65.0108 13.2155ZM68.5503 13.2155C68.5503 12.179 68.0847 11.5728 67.2675 11.5728C66.4471 11.5728 65.9857 12.179 65.9857 13.2155C65.9857 14.2604 66.4472 14.8619 67.2675 14.8619C68.0847 14.8619 68.5503 14.2562 68.5503 13.2155H68.5503Z" fill="white"/>
  <path d="M70.515 14.2562C70.515 13.3954 71.1559 12.8992 72.2936 12.8287L73.5889 12.754V12.3412C73.5889 11.8362 73.2549 11.551 72.6099 11.551C72.0831 11.551 71.718 11.7444 71.6133 12.0825H70.6996C70.7961 11.2611 71.5687 10.7343 72.6534 10.7343C73.8523 10.7343 74.5285 11.3311 74.5285 12.3412V15.6085H73.62V14.9365H73.5453C73.3938 15.1776 73.1809 15.3741 72.9286 15.506C72.6763 15.6379 72.3934 15.7005 72.109 15.6873C71.9082 15.7082 71.7053 15.6868 71.5134 15.6244C71.3214 15.5621 71.1447 15.4602 70.9945 15.3254C70.8443 15.1906 70.724 15.0258 70.6415 14.8416C70.5589 14.6574 70.5158 14.458 70.515 14.2562ZM73.5889 13.8476V13.4478L72.4211 13.5225C71.7626 13.5665 71.4639 13.7905 71.4639 14.2121C71.4639 14.6425 71.8373 14.8929 72.3507 14.8929C72.5011 14.9082 72.653 14.893 72.7975 14.8483C72.9419 14.8036 73.0759 14.7303 73.1914 14.6328C73.3069 14.5352 73.4016 14.4154 73.4699 14.2806C73.5382 14.1457 73.5787 13.9984 73.5889 13.8476Z" fill="white"/>
  <path d="M75.7688 13.2155C75.7688 11.7045 76.5456 10.7473 77.7537 10.7473C78.0526 10.7335 78.3492 10.8051 78.6089 10.9537C78.8685 11.1022 79.0806 11.3216 79.2202 11.5862H79.2907V8.95988H80.2344V15.6085H79.3301V14.853H79.2554C79.105 15.1158 78.8856 15.3325 78.6209 15.4796C78.3562 15.6266 78.0564 15.6985 77.7538 15.6873C76.5373 15.6874 75.7688 14.7301 75.7688 13.2155ZM76.7437 13.2155C76.7437 14.2298 77.2218 14.8401 78.0214 14.8401C78.8168 14.8401 79.3083 14.221 79.3083 13.2197C79.3083 12.223 78.8116 11.5951 78.0214 11.5951C77.2269 11.5951 76.7436 12.2095 76.7436 13.2155H76.7437Z" fill="white"/>
  <path d="M84.139 13.2155C84.1089 12.9013 84.1449 12.5842 84.2445 12.2846C84.3442 11.9851 84.5053 11.7097 84.7177 11.4761C84.93 11.2425 85.1888 11.0558 85.4775 10.9281C85.7662 10.8004 86.0784 10.7344 86.3941 10.7344C86.7098 10.7344 87.022 10.8004 87.3107 10.9281C87.5994 11.0558 87.8582 11.2425 88.0705 11.4761C88.2828 11.7097 88.444 11.9851 88.5437 12.2846C88.6433 12.5842 88.6793 12.9013 88.6492 13.2155C88.6798 13.5301 88.6443 13.8476 88.5449 14.1476C88.4455 14.4476 88.2845 14.7236 88.0721 14.9576C87.8597 15.1917 87.6007 15.3788 87.3117 15.5068C87.0227 15.6348 86.7102 15.7009 86.3941 15.7009C86.078 15.7009 85.7655 15.6348 85.4765 15.5068C85.1875 15.3788 84.9285 15.1917 84.7161 14.9576C84.5037 14.7236 84.3427 14.4476 84.2433 14.1476C84.1439 13.8476 84.1084 13.5301 84.139 13.2155ZM87.6785 13.2155C87.6785 12.179 87.2129 11.5728 86.3957 11.5728C85.5753 11.5728 85.1139 12.179 85.1139 13.2155C85.1139 14.2604 85.5754 14.8619 86.3957 14.8619C87.2129 14.8619 87.6785 14.2562 87.6785 13.2155Z" fill="white"/>
  <path d="M89.9154 10.8266H90.8239V11.5862H90.8944C91.0141 11.3134 91.2158 11.0847 91.4716 10.932C91.7274 10.7793 92.0245 10.7102 92.3214 10.7343C92.5541 10.7168 92.7877 10.7519 93.005 10.8369C93.2223 10.922 93.4176 11.0549 93.5766 11.2257C93.7356 11.3965 93.854 11.6009 93.9233 11.8237C93.9925 12.0465 94.0107 12.282 93.9766 12.5129V15.6085H93.0329V12.7498C93.0329 11.9814 92.6989 11.5992 92.001 11.5992C91.843 11.5919 91.6853 11.6187 91.5387 11.678C91.3921 11.7373 91.26 11.8276 91.1516 11.9427C91.0431 12.0578 90.9608 12.195 90.9104 12.3449C90.8599 12.4947 90.8424 12.6538 90.8592 12.811V15.6085H89.9154V10.8266Z" fill="white"/>
  <path d="M99.3092 9.63606V10.8484H100.345V11.6433H99.3092V14.1022C99.3092 14.6031 99.5156 14.8224 99.9854 14.8224C100.106 14.8221 100.226 14.8148 100.345 14.8007V15.5868C100.176 15.6171 100.004 15.6332 99.8319 15.635C98.7824 15.635 98.3644 15.2658 98.3644 14.3438V11.6433H97.6053V10.8484H98.3644V9.63606H99.3092Z" fill="white"/>
  <path d="M101.634 8.95988H102.57V11.5951H102.644C102.77 11.3197 102.977 11.0897 103.238 10.9364C103.499 10.7831 103.801 10.714 104.102 10.7385C104.334 10.7259 104.565 10.7645 104.78 10.8516C104.995 10.9388 105.188 11.0722 105.345 11.2425C105.502 11.4128 105.62 11.6157 105.69 11.8367C105.76 12.0577 105.78 12.2914 105.749 12.5212V15.6085H104.805V12.754C104.805 11.9902 104.449 11.6034 103.782 11.6034C103.62 11.5901 103.457 11.6124 103.304 11.6687C103.151 11.725 103.013 11.8141 102.898 11.9295C102.783 12.045 102.695 12.1841 102.64 12.3372C102.585 12.4903 102.564 12.6536 102.578 12.8157V15.6085H101.634L101.634 8.95988Z" fill="white"/>
  <path d="M111.252 14.3174C111.124 14.7544 110.846 15.1325 110.467 15.3854C110.088 15.6383 109.633 15.75 109.18 15.7008C108.865 15.7092 108.552 15.6488 108.262 15.524C107.973 15.3992 107.714 15.2129 107.504 14.9781C107.294 14.7432 107.137 14.4655 107.045 14.1641C106.953 13.8627 106.928 13.5448 106.971 13.2326C106.929 12.9195 106.955 12.601 107.047 12.2986C107.139 11.9963 107.294 11.7173 107.503 11.4804C107.712 11.2435 107.97 11.0543 108.258 10.9256C108.547 10.7969 108.86 10.7316 109.176 10.7343C110.506 10.7343 111.309 11.6434 111.309 13.145V13.4743H107.932V13.5272C107.918 13.7026 107.94 13.8793 107.997 14.0457C108.055 14.2122 108.146 14.3648 108.266 14.4938C108.386 14.6228 108.532 14.7253 108.693 14.7947C108.855 14.8642 109.03 14.899 109.206 14.8971C109.432 14.9242 109.66 14.8835 109.863 14.7803C110.065 14.6771 110.233 14.5159 110.343 14.3174L111.252 14.3174ZM107.932 12.7763H110.348C110.36 12.6158 110.338 12.4546 110.284 12.3031C110.229 12.1515 110.144 12.0129 110.033 11.8963C109.923 11.7796 109.789 11.6874 109.64 11.6256C109.491 11.5639 109.331 11.5339 109.171 11.5375C109.007 11.5355 108.845 11.5661 108.694 11.6277C108.543 11.6892 108.406 11.7804 108.29 11.8958C108.175 12.0113 108.084 12.1487 108.022 12.2999C107.961 12.4511 107.93 12.6131 107.932 12.7763H107.932Z" fill="white"/>
</svg>
