<?xml version="1.0" encoding="UTF-8"?>
<!DOCTYPE svg PUBLIC "-//W3C//DTD SVG 1.1//EN" "http://www.w3.org/Graphics/SVG/1.1/DTD/svg11.dtd">
<!-- Creator: CorelDRAW X8 -->
<svg xmlns="http://www.w3.org/2000/svg" xml:space="preserve" width="7.92709in" height="8.0098in" version="1.1" style="shape-rendering:geometricPrecision; text-rendering:geometricPrecision; image-rendering:optimizeQuality; fill-rule:evenodd; clip-rule:evenodd"
viewBox="0 0 7920 8003"
 xmlns:xlink="http://www.w3.org/1999/xlink">
 <defs>
  <style type="text/css">
   <![CDATA[
    .str5 {stroke:#EF7F1A;stroke-width:180.7}
    .str1 {stroke:#153ABD;stroke-width:13.8737}
    .str2 {stroke:#FEFEFE;stroke-width:13.8776}
    .str6 {stroke:#153ABD;stroke-width:13.8776}
    .str4 {stroke:#EF7F1A;stroke-width:2.99737}
    .str0 {stroke:#153ABD;stroke-width:20.8164;stroke-dasharray:41.632817 62.449226}
    .str3 {stroke:#103DBD;stroke-width:16.2928;stroke-linecap:round}
    .fil2 {fill:none}
    .fil11 {fill:none;fill-rule:nonzero}
    .fil3 {fill:#FEFEFE}
    .fil7 {fill:#EF7F1A}
    .fil8 {fill:#153ABD}
    .fil6 {fill:#FEFEFE}
    .fil10 {fill:#FEFEFE;fill-rule:nonzero}
    .fil5 {fill:#EF7F1A;fill-rule:nonzero}
    .fil15 {fill:#EF7F1A;fill-rule:nonzero}
    .fil0 {fill:#EBEEF8;fill-rule:nonzero}
    .fil21 {fill:#092382;fill-rule:nonzero}
    .fil12 {fill:#103DBD;fill-rule:nonzero}
    .fil20 {fill:#153ABD;fill-rule:nonzero}
    .fil4 {fill:#153ABD;fill-rule:nonzero}
    .fil13 {fill:#2F4AC3;fill-rule:nonzero}
    .fil23 {fill:#A8BBFF;fill-rule:nonzero}
    .fil17 {fill:#EBEFFF;fill-rule:nonzero}
    .fil1 {fill:#F2F2F2;fill-rule:nonzero}
    .fil22 {fill:#FEFEFE;fill-rule:nonzero}
    .fil18 {fill:#231F1F;fill-rule:nonzero;fill-opacity:0.078431}
    .fil16 {fill:#F2F2F2;fill-rule:nonzero;fill-opacity:0.101961}
    .fil9 {fill:url(#id1)}
    .fil25 {fill:url(#id2)}
    .fil19 {fill:url(#id3);fill-rule:nonzero}
    .fil24 {fill:url(#id4);fill-rule:nonzero}
    .fil14 {fill:url(#id5);fill-rule:nonzero}
   ]]>
  </style>
     <clipPath id="id0">
      <path d="M5799 5739l378 0c36,0 65,30 65,66l0 333c0,36 -29,66 -65,66l-378 0c-36,0 -66,-30 -66,-66l0 -333c0,-36 30,-66 66,-66z"/>
     </clipPath>
  <linearGradient id="id1" gradientUnits="userSpaceOnUse" x1="3088.16" y1="7180.51" x2="4972.69" y2="7184.32">
   <stop offset="0" style="stop-opacity:1; stop-color:#6900BF"/>
   <stop offset="1" style="stop-opacity:1; stop-color:#0048BD"/>
  </linearGradient>
  <linearGradient id="id2" gradientUnits="userSpaceOnUse" xlink:href="#id1" x1="4491.14" y1="3592.31" x2="3276.88" y2="3594.49">
  </linearGradient>
  <linearGradient id="id3" gradientUnits="userSpaceOnUse" xlink:href="#id1" x1="896.415" y1="1158.81" x2="2816.4" y2="1178.44">
  </linearGradient>
  <linearGradient id="id4" gradientUnits="userSpaceOnUse" xlink:href="#id1" x1="6047.27" y1="4739.49" x2="1715.49" y2="4738.39">
  </linearGradient>
  <linearGradient id="id5" gradientUnits="userSpaceOnUse" xlink:href="#id1" x1="3303.95" y1="766.75" x2="4991.03" y2="769.774">
  </linearGradient>
 </defs>
 <g id="Layer_x0020_1">
  <metadata id="CorelCorpID_0Corel-Layer"/>
  <g id="_1935680244016">
   <g>
    <path class="fil0" d="M2851 6264c-53,-346 186,-670 532,-723 346,-53 670,185 724,531 3,26 -14,50 -40,54 -25,4 -49,-14 -53,-40 -45,-295 -322,-498 -617,-453 -295,46 -498,322 -453,617 2,13 5,26 7,39 6,25 -10,50 -35,56 -25,6 -50,-10 -56,-35 -4,-15 -6,-30 -9,-46z"/>
    <path class="fil0" d="M3216 6209c-22,-145 78,-281 223,-304 145,-22 281,78 303,223 3,17 3,35 3,52 -1,26 -23,46 -49,45 -26,-1 -46,-23 -45,-49 0,-11 0,-23 -2,-34 -14,-94 -102,-158 -196,-144 -94,15 -159,103 -144,196 14,94 102,159 196,144 12,-1 24,-5 36,-9 24,-9 51,3 60,27 9,24 -3,52 -27,61 -18,7 -36,11 -55,14 -145,22 -281,-77 -303,-222z"/>
    <path class="fil0" d="M3035 6239c-16,-108 7,-218 65,-309 14,-22 43,-28 65,-14 22,14 28,43 14,65 -46,72 -64,158 -51,243 29,193 210,326 402,296 38,-6 73,-17 107,-34 23,-12 51,-2 63,21 11,23 2,51 -21,63 -42,21 -87,36 -134,43 -244,37 -473,-131 -510,-374z"/>
    <path class="fil0" d="M3328 5791c-3,-24 12,-46 35,-53 15,-4 31,-7 46,-9 244,-37 473,130 510,374 19,122 -14,248 -91,345 -16,20 -46,24 -66,8 -20,-16 -24,-46 -8,-66 62,-78 87,-175 72,-273 -29,-192 -210,-325 -402,-295 -13,2 -25,4 -37,7 -25,7 -51,-8 -58,-33 0,-2 0,-3 -1,-5z"/>
    <path class="fil0" d="M3030 6603c-2,-14 2,-28 12,-39 18,-19 48,-20 66,-2 80,75 178,125 285,142 26,4 43,29 39,54 -4,26 -28,43 -54,39 -126,-21 -241,-79 -334,-167 -8,-7 -13,-17 -14,-27z"/>
    <path class="fil0" d="M3478 6764c-1,-1 -1,-3 -1,-4 -2,-26 18,-48 43,-50 15,-1 29,-3 43,-5 200,-31 365,-169 431,-360 8,-24 35,-37 59,-29 25,8 38,35 29,60 -77,224 -270,386 -504,422 -17,2 -34,4 -51,5 -24,2 -46,-15 -49,-39z"/>
    <path class="fil0" d="M2980 6514c-23,3 -45,-12 -48,-36 -4,-23 12,-45 35,-48 23,-4 45,12 48,35 4,24 -12,45 -35,49z"/>
    <path class="fil0" d="M3248 5887c-23,4 -45,-12 -48,-36 -4,-23 12,-44 35,-48 23,-4 45,12 49,36 3,23 -13,44 -36,48z"/>
    <path class="fil1" d="M4070 6265c-23,4 -45,-12 -48,-35 -4,-24 12,-45 35,-49 24,-3 45,13 49,36 3,23 -13,45 -36,48z"/>
    <path class="fil0" d="M3693 6287c-3,-22 -22,-38 -44,-38l0 -1c-85,-11 -100,-64 -103,-83 -1,-2 -1,-4 -1,-7 -6,-36 -40,-61 -76,-56 -37,6 -62,40 -56,76 5,37 40,62 76,56 2,0 5,-1 7,-1 70,-12 107,64 107,64l0 -1c1,2 1,3 1,5 4,25 27,42 51,38 25,-4 42,-27 38,-52z"/>
   </g>
   <g>
    <path class="fil0" d="M3894 2206c-66,-431 231,-835 662,-901 431,-66 835,231 901,662 5,32 -17,62 -48,67 -32,4 -62,-17 -67,-49 -56,-368 -401,-621 -768,-565 -368,57 -621,401 -565,769 3,16 6,32 10,48 7,31 -13,63 -45,70 -31,7 -62,-13 -70,-44 -4,-19 -7,-38 -10,-57z"/>
    <path class="fil0" d="M4348 2137c-28,-181 97,-350 277,-378 181,-28 351,97 378,277 4,22 5,44 4,65 -2,33 -29,58 -61,56 -32,-1 -58,-28 -56,-61 0,-14 0,-28 -2,-42 -18,-117 -128,-197 -245,-179 -117,18 -197,127 -179,244 17,117 127,198 244,180 15,-3 30,-7 44,-12 31,-12 64,4 76,34 11,30 -4,64 -34,75 -22,9 -45,15 -68,18 -181,28 -350,-97 -378,-277z"/>
    <path class="fil0" d="M4123 2174c-21,-134 8,-270 81,-384 17,-28 54,-35 81,-18 27,17 35,54 18,81 -58,90 -81,198 -65,303 37,240 262,406 502,369 46,-7 91,-22 132,-42 29,-15 64,-4 79,25 14,29 3,64 -26,79 -52,26 -109,44 -167,53 -304,47 -589,-162 -635,-466z"/>
    <path class="fil0" d="M4488 1617c-4,-30 14,-58 43,-66 19,-5 39,-9 58,-12 304,-46 588,163 635,466 23,153 -18,309 -113,430 -21,25 -57,30 -83,10 -25,-20 -29,-57 -9,-83 76,-96 108,-217 89,-339 -36,-240 -262,-405 -501,-368 -16,2 -31,5 -46,9 -31,8 -63,-10 -72,-41 0,-2 0,-4 -1,-6z"/>
    <path class="fil0" d="M4116 2629c-3,-18 2,-36 15,-50 23,-23 60,-24 83,-2 99,94 222,155 355,177 32,5 54,36 48,67 -5,32 -35,54 -67,49 -157,-26 -301,-98 -417,-208 -9,-9 -15,-21 -17,-33z"/>
    <path class="fil0" d="M4674 2829c0,-2 -1,-4 -1,-5 -2,-32 22,-60 54,-63 18,-1 36,-3 54,-6 249,-38 454,-210 536,-448 10,-31 43,-47 74,-36 31,10 47,43 36,74 -95,280 -336,481 -628,526 -21,3 -42,5 -63,7 -31,2 -58,-20 -62,-49z"/>
    <path class="fil0" d="M4054 2517c-29,5 -56,-15 -60,-44 -5,-29 15,-56 44,-60 29,-5 56,15 60,44 5,29 -15,56 -44,60z"/>
    <path class="fil0" d="M4388 1736c-29,5 -56,-15 -60,-44 -5,-29 15,-56 44,-60 29,-5 56,15 60,44 5,29 -15,56 -44,60z"/>
    <path class="fil1" d="M5412 2207c-29,5 -56,-15 -60,-44 -4,-29 15,-56 44,-60 29,-5 56,15 61,44 4,29 -16,56 -45,60z"/>
    <path class="fil0" d="M4943 2235c-5,-28 -28,-48 -56,-48l1 -1c-106,-14 -126,-80 -129,-103 0,-3 -1,-6 -1,-9 -7,-45 -50,-77 -95,-70 -45,7 -77,50 -70,95 7,46 50,77 95,70 3,-1 6,-1 9,-2 87,-15 134,79 134,79l0 0c0,2 0,4 0,6 5,31 34,52 65,47 30,-5 51,-33 47,-64z"/>
   </g>
   <path class="fil2 str0" d="M1033 5586c-245,-463 -385,-991 -385,-1551 0,-1828 1482,-3310 3310,-3310 1828,0 3310,1482 3310,3310 0,1828 -1482,3310 -3310,3310 -546,0 -1062,-133 -1516,-367"/>
   <g>
    <circle class="fil3" transform="matrix(-0.0232424 1.33306 -1.33306 -0.0232424 1341.17 6052.55)" r="148"/>
    <g>
     <circle class="fil3" transform="matrix(0.438453 1.2813 -1.2813 0.438453 2015.06 6628.38)" r="148"/>
     <circle class="fil3" transform="matrix(0.342788 1.00174 -1.00174 0.342788 1304.28 6851.04)" r="148"/>
     <g>
      <path class="fil4" d="M996 6272l-47 -99c-4,-8 -1,-19 8,-23l69 -33c7,-3 11,-11 9,-18 -5,-28 -5,-57 -3,-84 1,-8 -4,-16 -11,-19l-66 -23c-9,-3 -13,-13 -10,-22l36 -103c3,-9 13,-14 22,-10l71 25c8,2 16,0 20,-6 12,-16 26,-31 41,-44 6,-6 7,-14 4,-21l-32 -66c-4,-9 0,-20 9,-24l98 -47c8,-4 19,0 23,9l31 64c3,7 11,11 19,10 24,-4 48,-6 72,-5 8,1 15,-4 18,-11l26 -75c3,-9 13,-14 22,-11l103 36c9,4 14,14 11,23l-26 72c-3,8 0,16 7,20 21,15 41,32 58,52 6,6 14,8 21,5l63 -30c8,-4 19,-1 23,8l47 98c4,9 0,19 -8,24l-63 29c-7,4 -11,12 -10,19 4,24 6,48 4,71 0,8 5,15 12,18l67 23c9,4 14,14 11,23l-37 102c-3,9 -13,14 -22,11l-65 -23c-8,-3 -16,0 -21,6 -15,22 -33,42 -53,60 -6,5 -8,13 -5,21l31 64c4,9 1,19 -8,24l-98 46c-9,5 -19,1 -23,-8l-32 -66c-3,-7 -11,-11 -19,-10 -22,4 -45,5 -67,3 -8,0 -15,5 -18,12l-22 62c-3,9 -13,14 -22,10l-102 -36c-10,-3 -14,-13 -11,-22l21 -60c3,-8 0,-16 -7,-21 -20,-14 -40,-31 -57,-51 -5,-5 -13,-7 -21,-4l-68 33c-9,4 -19,0 -23,-8zm419 -77l0 0c82,-40 117,-138 78,-221 -40,-82 -138,-117 -221,-78 -82,39 -117,138 -78,221 39,82 138,117 221,78z"/>
      <path class="fil4" d="M1366 7139l-77 6c-7,1 -13,-4 -14,-11l-4 -54c-1,-6 -5,-11 -10,-12 -20,-4 -39,-10 -57,-19 -5,-3 -12,-2 -16,3l-32 38c-4,5 -12,5 -17,1l-60 -51c-5,-4 -6,-12 -1,-17l35 -41c3,-4 4,-10 1,-15 -8,-12 -14,-25 -19,-39 -2,-5 -7,-8 -13,-8l-52 4c-7,1 -13,-4 -14,-11l-6 -78c-1,-7 5,-13 12,-13l51 -4c5,-1 10,-5 11,-10 3,-18 8,-34 15,-50 3,-5 1,-11 -3,-15l-43 -37c-5,-4 -6,-12 -2,-17l51 -59c5,-6 12,-6 18,-2l41 36c5,3 11,4 16,1 15,-11 32,-20 50,-26 5,-2 8,-8 8,-13l-4 -50c-1,-6 4,-13 11,-13l78 -6c7,-1 13,4 14,11l3 50c1,5 5,10 11,11 16,3 33,9 48,16 5,2 11,0 15,-4l33 -39c4,-5 12,-5 17,-1l60 51c5,4 6,12 1,17l-32 38c-4,4 -4,11 -1,15 11,16 19,33 26,51 2,6 7,9 13,9l51 -4c7,-1 13,4 13,11l7 78c0,7 -5,13 -12,13l-52 4c-6,1 -11,5 -12,10 -3,16 -8,32 -15,46 -2,6 -1,12 4,15l35 31c5,4 6,12 1,17l-50 59c-5,6 -12,6 -18,2l-34 -30c-5,-3 -11,-4 -16,-1 -15,11 -31,19 -48,26 -6,2 -9,7 -9,12l5 55c0,7 -5,13 -12,13zm56 -300l0 0c-5,-65 -62,-114 -127,-108 -66,5 -114,62 -109,127 5,65 62,114 127,109 66,-5 114,-62 109,-128z"/>
      <path class="fil5" d="M2195 6249l91 61c8,5 10,16 5,24l-42 63c-5,7 -4,15 1,21 19,22 34,46 46,71 3,7 11,11 19,10l68 -14c9,-2 19,4 21,14l21 106c2,10 -4,19 -14,21l-74 15c-7,1 -13,7 -13,15 -3,20 -7,39 -13,59 -2,7 1,15 7,20l62 40c8,6 10,17 4,25l-60 90c-5,8 -16,10 -24,5l-60 -40c-6,-4 -15,-3 -21,2 -18,16 -38,30 -60,41 -6,4 -10,11 -9,19l16 78c2,9 -4,18 -14,20l-106 22c-10,2 -19,-4 -21,-14l-15 -75c-2,-8 -8,-14 -16,-14 -26,-2 -52,-6 -77,-15 -8,-2 -16,1 -20,7l-39 58c-5,8 -16,10 -24,5l-90 -60c-8,-6 -11,-17 -5,-25l38 -57c4,-7 4,-15 -1,-21 -16,-19 -29,-38 -40,-59 -4,-7 -11,-11 -19,-9l-70 14c-9,2 -19,-4 -20,-14l-22 -106c-2,-10 4,-19 14,-21l68 -14c8,-1 14,-8 14,-16 2,-26 7,-53 15,-78 3,-8 0,-16 -7,-20l-59 -40c-8,-6 -10,-16 -5,-24l60 -91c5,-8 16,-10 24,-5l62 41c6,4 15,4 21,-1 17,-15 36,-28 56,-38 7,-4 10,-11 9,-19l-13 -64c-2,-9 4,-19 14,-21l106 -21c10,-2 19,4 21,14l13 62c1,8 8,14 16,14 25,2 50,6 75,14 7,3 16,0 20,-7l42 -63c5,-8 16,-10 24,-5zm-320 281l0 0c-51,76 -30,179 46,230 76,50 179,30 230,-47 50,-76 30,-178 -47,-229 -76,-50 -178,-30 -229,46z"/>
     </g>
    </g>
   </g>
   <g>
    <rect class="fil6 str1" x="5567" y="5570" width="1354" height="1409" rx="168" ry="168"/>
    <path class="fil7" d="M5799 5739l378 0c36,0 65,30 65,66l0 333c0,36 -29,66 -65,66l-378 0c-36,0 -66,-30 -66,-66l0 -333c0,-36 30,-66 66,-66z"/>
    <g style="clip-path:url(#id0)">
     <g>
      <circle class="fil6" cx="5988" cy="5926" r="105"/>
      <circle class="fil6" cx="5988" cy="6253" r="194"/>
     </g>
    </g>
    <path class="fil2" d="M5799 5739l378 0c36,0 65,30 65,66l0 333c0,36 -29,66 -65,66l-378 0c-36,0 -66,-30 -66,-66l0 -333c0,-36 30,-66 66,-66z"/>
    <rect class="fil8" x="5733" y="6374" width="1038.06" height="22.1868" rx="14" ry="11"/>
    <rect class="fil8" x="5733" y="6583" width="1038.06" height="22.1868" rx="14" ry="11"/>
    <rect class="fil8" x="5733" y="6792" width="1038.06" height="22.1868" rx="14" ry="11"/>
   </g>
   <g>
    <circle class="fil9 str2" cx="3958" cy="7267" r="729"/>
    <g>
     <g>
      <path class="fil10" d="M4525 7298l-168 -345 -121 72 -130 69c-57,-17 -137,-39 -155,-36 -9,2 -18,4 -26,8 -10,-5 -21,-9 -30,-10 -10,-1 -25,6 -52,20 -11,5 -22,11 -34,16l-119 -62 0 -1 -130 -77 -168 345 119 72 14 -26 122 65 7 -12c1,4 3,7 6,11 6,6 24,23 64,11 -1,2 -2,4 -2,6 -4,13 -3,27 4,38 7,11 17,18 30,20 8,1 16,1 24,-2 0,8 3,18 8,26 11,20 36,36 74,23 5,17 15,26 23,30 7,4 14,6 23,6 9,0 19,-2 30,-7l12 -6c9,16 24,30 43,30 4,0 7,0 11,-1 19,-6 29,-24 31,-43 16,6 33,6 46,-1 11,-7 18,-18 20,-33 12,3 26,2 38,-4 15,-7 25,-20 30,-36 0,0 0,0 0,0 14,0 33,-10 44,-24 11,-14 14,-29 9,-45 9,-8 19,-15 30,-22l18 35 121 -64 14 26 120 -72zm-885 87l0 0 -107 -57 149 -283 107 56 -149 284zm162 -271l0 0c17,-7 34,-16 48,-23 17,-9 38,-19 43,-18 20,2 70,31 102,64 24,25 29,30 4,91 -5,11 -8,22 -11,32 -6,16 -12,35 -18,34 -15,-4 -47,-23 -24,-104l2 -8 -7 -2c-12,-6 -24,-15 -24,-15l-7 -4 -87 67c-15,10 -31,20 -46,30 -33,22 -60,39 -78,52l103 -196zm197 450l0 0c-16,5 -29,-10 -37,-25 -4,-8 -4,-22 1,-31 4,-8 10,-12 17,-13 1,0 1,0 2,0 9,0 19,5 25,13l12 19c1,19 -7,34 -20,37zm73 -42l0 0c-10,6 -25,4 -39,-4l-11 -19 -2 1 2 -1c-12,-19 -8,-40 4,-50 8,-7 19,-6 30,3l29 43c0,13 -4,22 -13,27zm59 -37l0 0c-10,5 -22,5 -32,0l-30 -43c-11,-21 -1,-37 10,-44 14,-7 34,-6 47,14l0 0 28 44c-4,17 -16,25 -23,29zm69 -55l0 0c-10,12 -25,17 -32,17l-25 -40c-6,-19 2,-33 11,-38 13,-7 29,-1 43,15 16,20 10,36 3,46zm14 -51l0 0c-1,-2 -3,-4 -4,-6l0 0c-23,-27 -48,-28 -64,-19 -12,6 -19,18 -21,32 -18,-12 -39,-11 -54,-2 -11,6 -18,15 -22,27 -2,5 -2,12 -1,18 -14,-4 -25,0 -33,7 -9,7 -15,19 -17,32 0,4 -1,9 0,13 -6,-2 -13,-3 -19,-3 -14,1 -25,9 -31,21 -6,12 -7,26 -4,37l-13 7c-15,6 -29,7 -38,2 -8,-5 -13,-12 -16,-24l93 -61c4,-3 5,-8 2,-12 -2,-4 -8,-5 -12,-2l-97 64c-38,17 -55,-3 -61,-13 -7,-12 -6,-23 -3,-25l110 -68c4,-3 5,-8 3,-12 -3,-4 -8,-5 -12,-3l-110 68c-16,10 -39,13 -49,-4 -9,-13 -6,-35 21,-52l101 -62c4,-3 5,-8 3,-12 -3,-4 -8,-5 -12,-3l-101 63c-27,15 -65,27 -80,9 -10,-12 -5,-34 10,-52 9,-11 59,-43 103,-72 16,-10 31,-20 46,-30 25,-16 65,-48 81,-59 4,3 9,6 15,9 -9,36 -9,66 1,87 10,21 27,28 36,31 2,1 4,1 6,1 17,0 25,-22 33,-46 3,-9 6,-20 11,-30 27,-66 23,-79 -8,-110 -14,-14 -34,-30 -54,-43 -3,-2 -5,-4 -8,-5 3,-1 6,-2 9,-2 11,-2 76,14 161,39l128 243c-9,8 -19,15 -29,22zm63 6l0 0 -149 -284 106 -56 149 284 -106 56z"/>
      <path class="fil5" d="M4318 7316c9,-5 13,-16 8,-25 -5,-10 -16,-13 -26,-8 -9,5 -12,16 -7,25 4,9 16,13 25,8z"/>
      <path class="fil5" d="M3617 7283c-9,-5 -21,-2 -26,8 -4,9 -1,20 8,25 9,5 21,1 26,-8 5,-9 1,-20 -8,-25z"/>
     </g>
    </g>
   </g>
   <g>
    <rect class="fil3" x="5747" y="1057" width="842" height="1101" rx="56" ry="20"/>
    <g>
     <line class="fil11 str3" x1="6530" y1="2158" x2="5812" y2= "2160" />
     <path class="fil11 str3" d="M5812 2160c-34,0 -62,-27 -62,-60"/>
     <line class="fil11 str3" x1="5750" y1="2100" x2="5744" y2= "1119" />
     <path class="fil11 str3" d="M5744 1119c0,-34 27,-61 62,-61"/>
     <line class="fil11 str3" x1="5806" y1="1058" x2="6523" y2= "1055" />
     <path class="fil11 str3" d="M6523 1055c35,0 62,27 63,61"/>
     <line class="fil11 str3" x1="6586" y1="1116" x2="6591" y2= "2096" />
     <path class="fil11 str3" d="M6591 2096c1,34 -27,61 -61,62"/>
     <line class="fil11 str3" x1="6443" y1="1413" x2="5878" y2= "1415" />
     <path class="fil11 str3" d="M5878 1415c-22,0 -40,-18 -40,-40"/>
     <line class="fil11 str3" x1="5838" y1="1375" x2="5837" y2= "1191" />
     <path class="fil11 str3" d="M5837 1191c-1,-21 17,-39 39,-39"/>
     <line class="fil11 str3" x1="5876" y1="1152" x2="6442" y2= "1150" />
     <path class="fil11 str3" d="M6442 1150c22,0 40,17 40,39"/>
     <line class="fil11 str3" x1="6482" y1="1189" x2="6483" y2= "1373" />
     <path class="fil11 str3" d="M6483 1373c0,22 -18,39 -40,40"/>
     <g>
      <polygon class="fil12" points="5996,1641 5846,1642 5846,1548 5996,1548 "/>
     </g>
     <g>
      <polygon class="fil12" points="6237,1640 6087,1641 6086,1548 6236,1547 "/>
     </g>
     <g>
      <polygon class="fil12" points="6480,1639 6330,1640 6329,1547 6479,1546 "/>
     </g>
     <g>
      <polygon class="fil12" points="5997,1816 5847,1816 5847,1723 5997,1722 "/>
     </g>
     <g>
      <polygon class="fil12" points="6238,1815 6088,1815 6087,1722 6237,1722 "/>
     </g>
     <g>
      <polygon class="fil12" points="6481,1814 6331,1814 6330,1721 6480,1721 "/>
     </g>
     <g>
      <polygon class="fil12" points="5998,1990 5848,1991 5848,1898 5998,1897 "/>
     </g>
     <g>
      <polygon class="fil12" points="6239,1989 6089,1990 6088,1897 6238,1896 "/>
     </g>
     <g>
      <polygon class="fil5" points="6482,1989 6332,1989 6331,1896 6481,1895 "/>
     </g>
     <path class="fil5" d="M5984 1351c-17,0 -30,-13 -30,-29 0,-16 13,-30 30,-30 16,0 30,13 30,30 0,16 -13,29 -30,29z"/>
     <line class="fil11 str3" x1="5924" y1="2068" x2="6393" y2= "2066" />
    </g>
   </g>
   <g>
    <path class="fil13" d="M4839 227c0,0 -378,-36 -756,-227 -379,191 -757,227 -757,227 -23,1260 757,1481 757,1481 0,0 780,-221 756,-1481z"/>
    <path class="fil14" d="M4735 313c0,0 -326,-30 -652,-195 -326,165 -652,195 -652,195 -20,1087 652,1276 652,1276 0,0 672,-189 652,-1276z"/>
    <path class="fil15 str4" d="M4311 734l-457 0c-23,0 -42,19 -42,42l0 352c0,24 19,42 42,42l457 0c24,0 42,-18 42,-42l0 -352c0,-23 -18,-42 -42,-42z"/>
    <line class="fil11 str5" x1="4083" y1="431" x2="4083" y2= "431" />
    <path class="fil11 str5" d="M4083 431c-95,0 -173,78 -173,173"/>
    <line class="fil11 str5" x1="3910" y1="604" x2="3910" y2= "865" />
    <path class="fil11 str5" d="M3910 865c0,95 78,172 173,172"/>
    <line class="fil11 str5" x1="4083" y1="1037" x2="4083" y2= "1037" />
    <path class="fil11 str5" d="M4083 1037c95,0 172,-77 172,-172"/>
    <line class="fil11 str5" x1="4255" y1="865" x2="4255" y2= "604" />
    <path class="fil11 str5" d="M4255 604c0,-95 -77,-173 -172,-173"/>
    <path class="fil10" d="M4137 851c0,-30 -24,-54 -54,-54 -30,0 -55,24 -55,54 0,30 25,54 55,54 30,0 54,-24 54,-54z"/>
    <polygon class="fil10" points="4124,1040 4042,1040 4063,856 4103,856 "/>
    <path class="fil16" d="M4083 0l0 1708c0,0 780,-221 756,-1481 0,0 -378,-36 -756,-227z"/>
    <path class="fil17" d="M4112 65c0,-16 -13,-29 -29,-29 -16,0 -29,13 -29,29 0,16 13,29 29,29 16,0 29,-13 29,-29z"/>
    <path class="fil18" d="M4083 36l0 58c16,0 29,-13 29,-29 0,-16 -13,-29 -29,-29z"/>
    <path class="fil17" d="M4112 1643c0,-16 -13,-29 -29,-29 -16,0 -29,13 -29,29 0,16 13,28 29,28 16,0 29,-12 29,-28z"/>
    <path class="fil18" d="M4083 1614l0 57c16,0 29,-12 29,-28 0,-16 -13,-29 -29,-29z"/>
    <path class="fil17" d="M4817 280c0,-16 -12,-29 -28,-29 -16,0 -29,13 -29,29 0,15 13,28 29,28 16,0 28,-13 28,-28z"/>
    <path class="fil18" d="M4789 251l0 57c16,0 28,-13 28,-28 0,-16 -12,-29 -28,-29z"/>
    <path class="fil17" d="M4539 1313c0,-16 -13,-29 -29,-29 -16,0 -29,13 -29,29 0,16 13,29 29,29 16,0 29,-13 29,-29z"/>
    <path class="fil18" d="M4510 1284l0 58c16,0 29,-13 29,-29 0,-16 -13,-29 -29,-29z"/>
    <path class="fil17" d="M4760 816c0,-16 -12,-28 -28,-28 -16,0 -29,12 -29,28 0,16 13,29 29,29 16,0 28,-13 28,-29z"/>
    <path class="fil18" d="M4732 788l0 57c16,0 28,-13 28,-29 0,-16 -12,-28 -28,-28z"/>
    <path class="fil17" d="M3406 280c0,-16 -13,-29 -29,-29 -16,0 -29,13 -29,29 0,15 13,28 29,28 16,0 29,-13 29,-28z"/>
    <path class="fil18" d="M3377 251l0 57c16,0 29,-13 29,-28 0,-16 -13,-29 -29,-29z"/>
    <path class="fil17" d="M3684 1313c0,-16 -13,-29 -28,-29 -16,0 -29,13 -29,29 0,16 13,29 29,29 15,0 28,-13 28,-29z"/>
    <path class="fil18" d="M3656 1284l0 58c15,0 28,-13 28,-29 0,-16 -13,-29 -28,-29z"/>
    <path class="fil17" d="M3463 816c0,-16 -13,-28 -29,-28 -16,0 -29,12 -29,28 0,16 13,29 29,29 16,0 29,-13 29,-29z"/>
    <path class="fil18" d="M3434 788l0 57c16,0 29,-13 29,-29 0,-16 -13,-28 -29,-28z"/>
   </g>
   <g>
    <polygon class="fil19" points="2525,1039 1040,1039 1040,1332 2525,1332 "/>
    <polygon class="fil20" points="1040,1332 1040,2153 2525,2153 2525,1332 "/>
    <polygon class="fil17" points="1242,1559 1105,1559 1105,1421 1242,1421 "/>
    <polygon class="fil17" points="2444,1559 2306,1559 2306,1421 2444,1421 "/>
    <polygon class="fil17" points="1483,1559 1345,1559 1345,1421 1483,1421 "/>
    <polygon class="fil17" points="1723,1559 1585,1559 1585,1421 1723,1421 "/>
    <polygon class="fil17" points="1963,1559 1826,1559 1826,1421 1963,1421 "/>
    <polygon class="fil5" points="2204,1559 2066,1559 2066,1421 2204,1421 "/>
    <polygon class="fil17" points="1242,1810 1105,1810 1105,1672 1242,1672 "/>
    <polygon class="fil17" points="2444,1810 2306,1810 2306,1672 2444,1672 "/>
    <polygon class="fil17" points="1483,1810 1345,1810 1345,1672 1483,1672 "/>
    <polygon class="fil17" points="1723,1810 1585,1810 1585,1672 1723,1672 "/>
    <polygon class="fil5" points="1963,1810 1826,1810 1826,1672 1963,1672 "/>
    <polygon class="fil5" points="2204,1810 2066,1810 2066,1672 2204,1672 "/>
    <polygon class="fil17" points="1242,2055 1105,2055 1105,1917 1242,1917 "/>
    <polygon class="fil17" points="2444,2055 2306,2055 2306,1917 2444,1917 "/>
    <polygon class="fil17" points="1483,2055 1345,2055 1345,1917 1483,1917 "/>
    <polygon class="fil17" points="1723,2055 1585,2055 1585,1917 1723,1917 "/>
    <polygon class="fil17" points="1963,2055 1826,2055 1826,1917 1963,1917 "/>
    <polygon class="fil17" points="2204,2055 2066,2055 2066,1917 2204,1917 "/>
    <path class="fil21" d="M1385 1179c0,43 -35,78 -78,78 -43,0 -78,-35 -78,-78 0,-43 35,-78 78,-78 43,0 78,35 78,78z"/>
    <path class="fil5" d="M1369 1171c0,22 -19,41 -41,41l-41 0c-23,0 -41,-19 -41,-41l0 -211c0,-23 18,-41 41,-41l41 0c22,0 41,18 41,41l0 211z"/>
    <path class="fil21" d="M2336 1179c0,43 -35,78 -78,78 -43,0 -78,-35 -78,-78 0,-43 35,-78 78,-78 43,0 78,35 78,78z"/>
    <path class="fil5" d="M2320 1171c0,22 -19,41 -41,41l-41 0c-23,0 -41,-19 -41,-41l0 -211c0,-23 18,-41 41,-41l41 0c22,0 41,18 41,41l0 211z"/>
   </g>
   <g>
    <g>
     <polygon class="fil22 str6" points="7,3063 7,4601 1146,4601 1146,3374 838,3066 "/>
    </g>
    <g>
     <polygon class="fil4" points="1146,3374 838,3066 838,3376 "/>
    </g>
    <g>
     <polygon class="fil23" points="879,3376 1146,3684 1146,3374 "/>
    </g>
    <g>
     <polygon class="fil23" points="879,3559 115,3559 115,3529 879,3529 "/>
    </g>
    <g>
     <polygon class="fil23" points="879,3636 115,3636 115,3606 879,3606 "/>
    </g>
    <g>
     <polygon class="fil23" points="879,3714 115,3714 115,3683 879,3683 "/>
    </g>
    <g>
     <polygon class="fil23" points="879,3791 115,3791 115,3761 879,3761 "/>
    </g>
    <g>
     <polygon class="fil23" points="879,3868 115,3868 115,3838 879,3838 "/>
    </g>
    <g>
     <polygon class="fil23" points="879,3945 115,3945 115,3915 879,3915 "/>
    </g>
    <g>
     <polygon class="fil23" points="879,4023 115,4023 115,3992 879,3992 "/>
    </g>
    <g>
     <polygon class="fil23" points="879,4100 115,4100 115,4070 879,4070 "/>
    </g>
    <g>
     <polygon class="fil23" points="879,4177 115,4177 115,4147 879,4147 "/>
    </g>
    <g>
     <polygon class="fil23" points="879,4254 115,4254 115,4224 879,4224 "/>
    </g>
    <g>
     <polygon class="fil23" points="879,4331 115,4331 115,4301 879,4301 "/>
    </g>
    <g>
     <polygon class="fil23" points="879,4409 115,4409 115,4379 879,4379 "/>
    </g>
    <g>
     <polygon class="fil23" points="879,4486 115,4486 115,4456 879,4456 "/>
    </g>
    <g>
     <g>
      <g>
       <path class="fil23" d="M1378 3686l70 -67c19,-19 16,-53 -8,-78l-29 -30 -104 100 71 75z"/>
       <path class="fil4" d="M1411 3511l-29 -30c-23,-25 -58,-29 -77,-11l-70 67 72 74 104 -100z"/>
       <g>
        <g>
         <polygon class="fil1" points="819,4243 655,4073 614,4223 667,4279 "/>
         <g>
          <polygon class="fil4" points="667,4279 614,4223 594,4296 "/>
         </g>
        </g>
        <polygon class="fil15" points="1244,3508 1225,3526 1388,3697 1408,3678 "/>
       </g>
       <g>
        <polygon class="fil23" points="1378,3686 1307,3611 1241,3675 737,4158 819,4243 1388,3697 "/>
       </g>
       <g>
        <polygon class="fil4" points="1235,3537 1225,3526 655,4073 737,4158 1241,3675 1307,3611 "/>
       </g>
      </g>
     </g>
    </g>
   </g>
   <g>
    <path class="fil4" d="M6443 3832c0,408 331,739 739,739 408,0 738,-331 738,-739 0,-408 -330,-738 -738,-738 -408,0 -739,330 -739,738z"/>
    <path class="fil15" d="M7906 3690c9,46 14,93 14,142 0,155 -48,298 -129,417l-609 -417 724 -142z"/>
    <path class="fil4" d="M7884 4060c-44,135 -125,253 -233,342l-469 -570 702 228z"/>
    <path class="fil23" d="M7917 3769l-735 63 362 -643c207,117 352,331 373,580z"/>
    <path class="fil23" d="M7280 4564l-98 -732 571 468c-116,141 -283,239 -473,264z"/>
   </g>
   <g>
    <path class="fil24" d="M2458 4602c22,5 39,16 53,33 13,17 19,36 19,58 0,32 -11,57 -33,75 -22,19 -53,28 -92,28l-176 0 0 -378 170 0c38,0 69,9 90,26 22,18 33,42 33,72 0,22 -6,41 -18,55 -11,15 -27,25 -46,31zm-137 -31l60 0c15,0 27,-3 35,-10 8,-7 12,-17 12,-29 0,-13 -4,-23 -12,-30 -8,-7 -20,-10 -35,-10l-60 0 0 79zm68 151c15,0 27,-4 36,-11 8,-7 12,-17 12,-30 0,-13 -4,-24 -13,-31 -9,-8 -21,-12 -36,-12l-67 0 0 84 68 0zm274 -176c11,-17 24,-30 40,-40 17,-9 35,-14 54,-14l0 98 -25 0c-23,0 -40,5 -52,15 -11,9 -17,27 -17,52l0 139 -92 0 0 -301 92 0 0 51zm172 -82c-16,0 -30,-5 -40,-14 -10,-10 -15,-21 -15,-35 0,-15 5,-27 15,-36 10,-10 24,-15 40,-15 16,0 29,5 39,15 10,9 15,21 15,36 0,14 -5,25 -15,35 -10,9 -23,14 -39,14zm46 31l0 301 -93 0 0 -301 93 0zm168 -4c21,0 39,4 55,13 16,9 29,20 37,34l0 -43 93 0 0 301c0,27 -6,52 -17,75 -11,22 -28,40 -50,54 -23,13 -50,19 -84,19 -44,0 -81,-10 -108,-31 -28,-21 -44,-50 -48,-86l91 0c3,12 10,21 21,28 11,6 24,10 40,10 19,0 34,-6 45,-17 12,-11 17,-28 17,-52l0 -43c-9,14 -21,26 -37,34 -16,9 -34,14 -55,14 -25,0 -48,-7 -68,-20 -20,-12 -36,-31 -47,-54 -12,-24 -18,-51 -18,-82 0,-31 6,-58 18,-81 11,-23 27,-41 47,-54 20,-13 43,-19 68,-19zm92 155c0,-23 -6,-41 -19,-55 -13,-13 -28,-20 -46,-20 -19,0 -34,7 -47,20 -13,13 -19,31 -19,54 0,23 6,42 19,55 13,13 28,20 47,20 18,0 33,-6 46,-20 13,-13 19,-31 19,-54zm331 -154c35,0 62,12 83,34 21,23 31,55 31,94l0 176 -91 0 0 -163c0,-20 -5,-36 -16,-47 -10,-11 -24,-17 -42,-17 -17,0 -31,6 -42,17 -10,11 -16,27 -16,47l0 163 -92 0 0 -399 92 0 0 139c10,-13 23,-24 39,-32 16,-8 34,-12 54,-12zm333 226l0 78 -47 0c-33,0 -59,-8 -78,-24 -19,-17 -28,-43 -28,-80l0 -120 -37 0 0 -77 37 0 0 -73 92 0 0 73 61 0 0 77 -61 0 0 121c0,9 2,15 7,19 4,4 11,6 21,6l33 0zm346 78l-79 -143 -22 0 0 143 -92 0 0 -378 154 0c30,0 56,5 77,15 21,11 36,25 47,43 10,18 15,39 15,61 0,25 -7,48 -21,67 -14,20 -35,34 -63,42l88 150 -104 0zm-101 -208l57 0c17,0 29,-4 38,-12 8,-9 13,-20 13,-35 0,-15 -5,-26 -13,-34 -9,-9 -21,-13 -38,-13l-57 0 0 94zm529 53c0,9 0,18 -1,27l-209 0c2,19 8,33 18,43 11,10 24,15 39,15 23,0 39,-10 48,-30l98 0c-5,20 -14,38 -27,54 -13,16 -29,28 -49,37 -20,9 -42,14 -66,14 -30,0 -56,-7 -79,-19 -23,-13 -41,-31 -54,-54 -13,-24 -19,-51 -19,-82 0,-31 6,-59 19,-82 12,-23 30,-41 53,-54 23,-13 50,-19 80,-19 29,0 55,6 77,18 23,13 41,30 53,53 13,22 19,49 19,79zm-94 -24c0,-16 -5,-29 -16,-38 -11,-9 -24,-14 -40,-14 -16,0 -29,4 -40,13 -10,9 -17,22 -19,39l115 0zm298 101l0 78 -47 0c-34,0 -60,-8 -79,-24 -18,-17 -28,-43 -28,-80l0 -120 -36 0 0 -77 36 0 0 -73 93 0 0 73 60 0 0 77 -60 0 0 121c0,9 2,15 6,19 4,4 12,6 22,6l33 0zm335 -223l0 301 -93 0 0 -41c-9,14 -22,24 -37,32 -16,8 -34,12 -54,12 -23,0 -43,-5 -61,-15 -17,-10 -31,-25 -40,-44 -10,-20 -15,-43 -15,-69l0 -176 92 0 0 164c0,20 5,36 15,47 11,11 25,16 42,16 18,0 32,-5 43,-16 10,-11 15,-27 15,-47l0 -164 93 0zm145 51c11,-17 24,-30 41,-40 16,-9 34,-14 53,-14l0 98 -25 0c-23,0 -40,5 -52,15 -11,9 -17,27 -17,52l0 139 -92 0 0 -301 92 0 0 51zm309 -54c35,0 63,12 84,34 21,23 32,55 32,94l0 176 -92 0 0 -163c0,-20 -5,-36 -16,-47 -10,-11 -24,-17 -42,-17 -17,0 -31,6 -42,17 -10,11 -15,27 -15,47l0 163 -92 0 0 -301 92 0 0 40c9,-13 22,-23 37,-31 16,-8 34,-12 54,-12z"/>
    <path class="fil25" d="M3461 3759l0 -408 0 -94c0,-47 11,-80 33,-101 22,-20 57,-31 106,-31l368 0c54,0 101,3 141,10 39,6 75,18 106,36 27,15 51,34 72,57 20,23 36,48 47,75 11,28 16,57 16,88 0,82 -55,156 -133,220l0 0c25,12 48,27 68,43 -43,42 -88,76 -132,102l0 -374c0,-22 -19,-40 -41,-40l-96 0c-22,0 -41,18 -41,40l0 448c-8,2 -16,4 -24,6l0 -249c0,-22 -18,-40 -41,-40l-96 0c-22,0 -40,18 -40,40l0 260c-8,-1 -16,-1 -25,-2l0 -55c0,-22 -18,-41 -40,-41l-96 0c-23,0 -41,19 -41,41l0 15c-41,-14 -78,-30 -111,-46zm762 389c-21,8 -45,15 -70,20l0 -237c-56,25 -115,44 -178,55l0 198c-8,1 -16,1 -24,1l0 -195c-57,8 -117,9 -177,1l0 194 -25 0 0 -198c-58,-10 -117,-29 -177,-57l0 253c-35,-3 -62,-13 -79,-30 -21,-21 -32,-54 -32,-100l0 -56 0 -20 0 -29 0 -36 0 -45 0 -23c351,249 708,102 915,-72 58,131 13,292 -153,376z"/>
    <path class="fil7" d="M4429 3581l0 0 -29 -21 -3 -1 -32 -23c-24,-22 -27,-51 4,-65 29,-11 58,-22 87,-33 29,-11 59,-22 89,-33 29,-7 57,10 59,44 -1,31 -1,62 -2,93 -1,31 -1,63 -2,95 -5,28 -30,41 -62,21l-29 -20 0 0 -4 -3 -25 -18 0 0 -51 -36z"/>
    <path class="fil7" d="M3313 3714c22,21 673,514 1139,-220 34,66 50,15 84,81 -7,19 -15,40 -30,60 -166,230 -706,595 -1193,79z"/>
    <path class="fil3" d="M4153 3912l0 256c-16,4 -32,6 -49,8 -38,5 -81,8 -129,8l0 -218c63,-11 122,-30 178,-54z"/>
    <path class="fil3" d="M3749 3967l0 218 -149 0c-10,0 -19,-1 -28,-2l0 -273c60,29 119,47 177,57z"/>
    <path class="fil3" d="M3951 3970l0 215 -4 0 -173 0 0 -214c60,8 120,7 177,-1z"/>
    <path class="fil3" d="M4016 3333l96 0c22,0 41,18 41,40l0 383c-60,36 -119,60 -178,74l0 -457c0,-22 19,-40 41,-40z"/>
    <path class="fil3" d="M3613 3740l96 0c22,0 40,19 40,41l0 64c-63,-7 -123,-22 -177,-40l0 -24c0,-22 18,-41 41,-41z"/>
    <path class="fil3" d="M3814 3538l96 0c23,0 41,18 41,40l0 258c-61,12 -120,15 -177,11l0 -269c0,-22 18,-40 40,-40z"/>
   </g>
  </g>
 </g>
</svg>
