<?xml version="1.0" encoding="UTF-8"?>
<!DOCTYPE svg PUBLIC "-//W3C//DTD SVG 1.1//EN" "http://www.w3.org/Graphics/SVG/1.1/DTD/svg11.dtd">
<!-- Creator: CorelDRAW X8 -->
<svg xmlns="http://www.w3.org/2000/svg" xml:space="preserve" width="3.7557in" height="3.08168in" version="1.1" style="shape-rendering:geometricPrecision; text-rendering:geometricPrecision; image-rendering:optimizeQuality; fill-rule:evenodd; clip-rule:evenodd"
viewBox="0 0 3756 3082"
 xmlns:xlink="http://www.w3.org/1999/xlink">
 <defs>
  <style type="text/css">
   <![CDATA[
    .fil2 {fill:#FEFEFE}
    .fil1 {fill:#EF7F1A}
    .fil0 {fill:url(#id0)}
   ]]>
  </style>
  <linearGradient id="id0" gradientUnits="userSpaceOnUse" x1="3428.15" y1="1358.57" x2="-103.868" y2="1364.9">
   <stop offset="0" style="stop-opacity:1; stop-color:#6900BF"/>
   <stop offset="1" style="stop-opacity:1; stop-color:#0048BD"/>
  </linearGradient>
 </defs>
 <g id="Layer_x0020_1">
  <metadata id="CorelCorpID_0Corel-Layer"/>
  <g id="_2405370367072">
   <path class="fil0" d="M432 1842l0 -1185 0 -275c0,-135 32,-233 96,-292 64,-60 166,-90 309,-90l1069 0c157,0 294,9 409,27 116,19 220,53 311,106 79,43 147,98 208,165 59,66 105,140 136,220 32,81 48,166 48,255 0,239 -160,454 -388,639l0 0c74,36 140,79 199,126 -127,122 -256,220 -386,298l0 -1095 0 -19c0,-65 -53,-118 -118,-118l-279 0c-65,0 -118,53 -118,118l0 19 0 1310c-24,6 -47,11 -71,16l0 -730 0 -19c0,-65 -53,-118 -118,-118l-279 0c-65,0 -118,53 -118,118l0 19 0 762c-24,-2 -48,-4 -71,-6l0 -167 0 -18c0,-65 -53,-118 -118,-118l-280 0c-65,0 -118,53 -118,118l0 18 0 50c-119,-40 -228,-87 -323,-134zm2216 1132c-62,25 -130,45 -205,60l0 -697 0 -50c248,-108 469,-254 651,-406 167,382 38,851 -446,1093zm-720 -478l0 585c-23,0 -47,1 -71,1l0 -575 0 -50 0 0c168,-24 329,-68 481,-126 -130,50 -268,89 -410,115l0 50zm411 -166c6,-2 13,-5 20,-7 -7,2 -14,5 -20,7zm21 -8c6,-2 12,-5 18,-7 -6,2 -12,5 -18,7zm22 -9c5,-2 11,-4 17,-7 -6,3 -12,5 -17,7zm21 -8c5,-2 10,-4 15,-6 -5,2 -10,4 -15,6zm21 -9c4,-2 9,-4 13,-6 -4,2 -9,4 -13,6zm-1082 214l0 572 -71 0 0 -583 0 -50c23,4 47,8 71,11l0 50zm-587 -177l0 745c-103,-9 -180,-39 -230,-87 -62,-61 -93,-159 -93,-292l0 -162 0 -58 0 -85 0 -107 0 -128 0 -68c108,76 216,140 323,192l0 50zm587 127c10,1 20,2 31,4 -11,-2 -21,-3 -31,-4zm47 5c10,1 19,2 29,3 -10,-1 -19,-2 -29,-3zm48 5c9,1 17,1 26,2 -9,-1 -17,-1 -26,-2zm46 3c8,0 17,1 25,1 -8,0 -17,-1 -25,-1zm46 2c8,0 16,0 24,0 -8,0 -16,0 -24,0zm48 1c6,0 13,0 20,0 -7,0 -14,0 -20,0zm46 -1c6,0 12,0 18,0 -6,0 -12,0 -18,0zm46 -1c6,0 11,-1 16,-1 -5,0 -10,1 -16,1zm46 -3c4,0 9,0 13,-1 -4,1 -9,1 -13,1z"/>
   <path class="fil1" d="M3248 1326l0 0 -86 -60 -7 -5 -93 -66c-71,-65 -79,-149 10,-190 84,-31 169,-63 253,-95 86,-32 172,-65 259,-97 86,-18 167,29 172,128 -2,90 -4,180 -5,270 -2,92 -4,184 -6,277 -15,83 -88,120 -182,61l-83 -59 0 0 -10 -7 -74 -52 0 0 -148 -105z"/>
   <path class="fil1" d="M0 1713c66,60 1960,1493 3313,-641 101,192 145,43 246,235 -20,55 -45,118 -87,176 -482,667 -2054,1732 -3472,230z"/>
   <g>
    <path class="fil2" d="M2443 2287l0 747c-45,10 -92,17 -141,23 -109,14 -234,22 -374,24l0 -635c181,-32 354,-88 515,-159z"/>
    <path class="fil2" d="M1271 2449l0 633 -434 0c-29,0 -56,-1 -82,-4l0 -795c174,83 346,137 516,166z"/>
    <path class="fil2" d="M1857 2457l0 625 -12 0 -503 0 0 -622c176,23 349,20 515,-3z"/>
   </g>
   <path class="fil2" d="M2046 604l279 0c65,0 118,53 118,118l0 1114c-172,104 -345,173 -515,215l0 -1329c0,-65 53,-118 118,-118z"/>
   <path class="fil2" d="M873 1790l280 0c65,0 118,53 118,118l0 185c-186,-20 -360,-63 -516,-117l0 -68c0,-65 53,-118 118,-118z"/>
   <path class="fil2" d="M1460 1200l279 0c65,0 118,53 118,118l0 749c-177,36 -350,44 -515,32l0 -781c0,-65 53,-118 118,-118z"/>
  </g>
 </g>
</svg>
