<?xml version="1.0" encoding="UTF-8" standalone="no" ?>
<!DOCTYPE svg PUBLIC "-//W3C//DTD SVG 1.1//EN" "http://www.w3.org/Graphics/SVG/1.1/DTD/svg11.dtd">
<svg xmlns="http://www.w3.org/2000/svg" xmlns:xlink="http://www.w3.org/1999/xlink" version="1.1" width="120" height="120" viewBox="0 0 120 120" xml:space="preserve">
<desc>Created with Fabric.js 3.6.6</desc>
<defs>
</defs>
<g transform="matrix(0.4 0 0 0.4 58.86 61.64)"  >
<g style=""   >
		<g transform="matrix(18 0 0 16.78 0 0)"  >
<path style="stroke: rgb(0,0,0); stroke-width: 1; stroke-dasharray: none; stroke-linecap: butt; stroke-dashoffset: 0; stroke-linejoin: miter; stroke-miterlimit: 4; fill: none; fill-rule: nonzero; opacity: 1;"  transform=" translate(-7.5, -7.5)" d="M 0.5 12.5 v -10 a 1 1 0 0 1 1 -1 h 4 l 2 2 h 6 a 1 1 0 0 1 1 1 v 8 a 1 1 0 0 1 -1 1 h -12 a 1 1 0 0 1 -1 -1 Z" stroke-linecap="round" />
</g>
		<g transform="matrix(5.66 0 0 5.66 -7.5 17.64)" style=""  >
		<text xml:space="preserve" font-family="'Open Sans', sans-serif" font-size="18" font-style="normal" font-weight="normal" style="stroke: none; stroke-width: 1; stroke-dasharray: none; stroke-linecap: butt; stroke-dashoffset: 0; stroke-linejoin: round; stroke-miterlimit: 4; fill: rgb(0,0,0); fill-rule: nonzero; opacity: 1; white-space: pre;" ><tspan x="-10.03" y="5.65" style="stroke-width: 1; font-family: 'Open Sans', sans-serif; font-size: 18px; font-style: normal; font-weight: bold; fill: rgb(0,0,0); ">AI</tspan></text>
</g>
</g>
</g>
</svg>